/vscmnt/brussel_pixiu_data/_data_brussel/112/vsc11236/PredSimResults/SUBJ04mtu3D/weighted-LRposFixed/trackIG/worker_03.mot
version=1
nRows=4
nColumns=50
inDegrees=yes
endheader
                time	         pelvis_tilt	         pelvis_list	     pelvis_rotation	           pelvis_tx	           pelvis_ty	           pelvis_tz	       hip_flexion_r	     hip_adduction_r	      hip_rotation_r	        knee_angle_r	       ankle_angle_r	         mtp_angle_r	       hip_flexion_l	     hip_adduction_l	      hip_rotation_l	        knee_angle_l	       ankle_angle_l	         mtp_angle_l	    lumbar_extension	      lumbar_bending	     lumbar_rotation	 ercspn_r/activation	 intobl_r/activation	 extobl_r/activation	    abd_r/activation	    add_r/activation	hamstrings_r/activation	bifemsh_r/activation	glut_max_r/activation	iliopsoas_r/activation	rect_fem_r/activation	  vasti_r/activation	gastroc_r/activation	 soleus_r/activation	tib_ant_r/activation	 ercspn_l/activation	 intobl_l/activation	 extobl_l/activation	    abd_l/activation	    add_l/activation	hamstrings_l/activation	bifemsh_l/activation	glut_max_l/activation	iliopsoas_l/activation	rect_fem_l/activation	  vasti_l/activation	gastroc_l/activation	 soleus_l/activation	tib_ant_l/activation	
          0.00000000	         -5.72840065	         -4.91033571	         12.42987629	          0.00000000	          0.88407968	         -0.02256758	         24.77359030	          0.33547016	         -5.15291330	          2.21534904	          5.36458032	          0.21334637	         -7.64954956	         -4.27535032	         15.91302762	         -7.91358512	         12.94515111	         21.59929016	         -2.56913387	          1.70767519	         -1.05568633	          0.09400988	          0.15421057	          0.02251440	          0.02603320	          0.10142441	          0.02582769	          0.01000163	          0.01000003	          0.05978774	          0.01458181	          0.02541317	          0.01000004	          0.01000003	          0.26689485	          0.02861292	          0.01000003	          0.01000004	          0.09575774	          0.01000020	          0.02024843	          0.14694783	          0.07631617	          0.34037047	          0.01000025	          0.01000005	          0.31304209	          0.27641540	          0.01525293	
          0.01410165	         -5.85269006	         -4.79627607	         12.32197424	          0.01463057	          0.88213393	         -0.02144798	         24.45211511	          0.60023655	         -3.96170112	          1.60252797	          5.02612817	          0.21882538	         -7.88733380	         -4.14535779	         15.11746732	         -9.16156194	         12.83637472	         23.21952496	         -2.28476954	          1.99722522	         -1.30293501	          0.07611985	          0.15080101	          0.01822988	          0.02107908	          0.13009197	          0.02441035	          0.01000086	          0.01000068	          0.04841006	          0.01180762	          0.02057710	          0.01573412	          0.01564299	          0.26761461	          0.05326316	          0.01000003	          0.01000006	          0.07753492	          0.01894885	          0.01729121	          0.11898353	          0.06684857	          0.30924410	          0.01000025	          0.01000005	          0.29252805	          0.27511460	          0.01235028	
          0.02820330	         -5.96004994	         -4.67213725	         12.14833103	          0.02966128	          0.88033002	         -0.02022957	         23.99166853	          0.87015651	         -2.81225854	          0.97444163	          4.63968049	          0.21161396	         -8.06941289	         -3.98699897	         14.26478699	        -10.60130533	         12.61182783	         24.90122485	         -1.98272728	          2.29833249	         -1.54335290	          0.06616485	          0.16382361	          0.01476072	          0.02276938	          0.10533541	          0.02923571	          0.04877063	          0.02148747	          0.03919757	          0.01000018	          0.01666129	          0.01273992	          0.01266612	          0.30206438	          0.07254803	          0.01000003	          0.01000009	          0.06277992	          0.03637131	          0.01467877	          0.09634086	          0.05412729	          0.27150437	          0.01000049	          0.01000010	          0.26755552	          0.26682186	          0.01000002	
          0.04230495	         -6.05125010	         -4.54539022	         11.89753050	          0.04489320	          0.87888045	         -0.01890244	         23.40907199	          1.15641321	         -1.73350148	          0.56145866	          4.11545851	          0.19892286	         -8.13362823	         -3.79783358	         13.36096664	        -12.30659066	         12.21351109	         26.63670248	         -1.68286872	          2.62181341	         -1.77454143	          0.06979376	          0.14834167	          0.01195175	          0.04626067	          0.08529035	          0.03026876	          0.03948984	          0.03269106	          0.03173822	          0.01000021	          0.01349088	          0.01031555	          0.01025577	          0.32824576	          0.09645262	          0.01000002	          0.01000006	          0.05083282	          0.03711748	          0.01444073	          0.07800713	          0.04382682	          0.22826507	          0.01000083	          0.01000019	          0.23494254	          0.25019777	          0.01000001	
